<svg id="Capa_1" enable-background="new 0 0 512 512" height="512" viewBox="0 0 512 512" width="512" xmlns="http://www.w3.org/2000/svg"><g><g><path d="m359.032 47.325h113.139c4.143 0 7.5-3.357 7.5-7.5s-3.357-7.5-7.5-7.5h-113.139c-4.143 0-7.5 3.357-7.5 7.5s3.357 7.5 7.5 7.5z"/><path d="m359.032 79.65h72.732c4.143 0 7.5-3.357 7.5-7.5s-3.357-7.5-7.5-7.5h-72.732c-4.143 0-7.5 3.357-7.5 7.5s3.357 7.5 7.5 7.5z"/><path d="m504.496 0h-177.789c-4.143 0-7.5 3.357-7.5 7.5v96.976c0 4.143 3.357 7.5 7.5 7.5h15.734v21.795c0 2.835 1.599 5.428 4.132 6.701 1.065.535 2.219.799 3.367.799 1.584 0 3.157-.501 4.477-1.481l37.403-27.813h112.676c4.143 0 7.5-3.357 7.5-7.5v-96.977c0-4.143-3.358-7.5-7.5-7.5zm-7.5 96.976h-107.658c-1.612 0-3.182.52-4.476 1.481l-27.421 20.391v-14.372c0-4.143-3.357-7.5-7.5-7.5h-15.734v-81.976h162.789z"/><path d="m429.746 143.44c-41.906 0-76.568 31.513-81.598 72.084l-21.346-21.348 6.265-11.96c5.653-10.792 3.663-23.83-4.95-32.444l-50.425-50.422c-8.612-8.614-21.649-10.605-32.444-4.952l-11.956 6.263-18.252-18.254c-2.929-2.929-7.678-2.93-10.606-.001-2.93 2.929-2.93 7.678-.001 10.606l143.842 143.852c2.15 15.763 8.772 30.117 18.558 41.736l-10.233 10.24c-1.023 1.019-2.688 1.021-3.701.007l-214.273-214.274c-1.02-1.021-1.02-2.685-.006-3.699l19.994-19.994c1.016-1.017 2.667-1.017 3.679-.006l17.391 17.39c2.928 2.928 7.677 2.929 10.606-.001 2.929-2.929 2.929-7.678-.001-10.606l-17.39-17.389c-6.853-6.854-18.015-6.855-24.887-.001l-20.006 20.006c-6.847 6.863-6.848 18.03.006 24.901l5.054 5.054.883 24.567c.339 9.417-1.844 18.781-6.311 27.079l-71.837 133.466-34.937 34.938c-4.963 4.964-6.317 12.174-4.1 18.385l-11.613 11.613c-6.862 6.863-6.862 18.03 0 24.894l57.144 57.144c3.432 3.431 7.939 5.146 12.446 5.146s9.015-1.716 12.446-5.146l11.607-11.607c1.885.676 3.885 1.047 5.947 1.047 4.702 0 9.122-1.831 12.447-5.156l6.598-6.598 13.987 19.58c1.464 2.05 3.769 3.142 6.109 3.142 1.508 0 3.031-.454 4.353-1.398 3.371-2.407 4.151-7.092 1.743-10.462l-15.439-21.613 17.585-17.585 8.942-4.813 52.533 76.411-23.616 23.616-19.664-27.534c-2.408-3.372-7.094-4.152-10.462-1.745-3.371 2.407-4.152 7.092-1.745 10.462l21.569 30.201c-.879 1.817-1.357 3.816-1.357 5.893 0 3.623 1.411 7.028 3.972 9.589l14.285 14.284c2.562 2.562 5.967 3.974 9.59 3.974 3.622 0 7.028-1.411 9.59-3.972l37.143-37.143c5.287-5.288 5.287-13.892 0-19.18l-14.285-14.285c-3.574-3.573-8.658-4.722-13.213-3.466l-23.806-34.627 17.017-17.018c2.416-2.416 2.894-6.16 1.161-9.105l-16.959-28.831 82.771-44.551c8.298-4.467 17.663-6.65 27.079-6.31l24.567.883 5.063 5.063c3.431 3.421 7.936 5.133 12.443 5.132 4.51 0 9.021-1.714 12.458-5.141l10.281-10.288c14.22 11.731 32.433 18.786 52.264 18.786 1.843 0 3.645-.06 5.356-.178 4.132-.285 7.251-3.866 6.966-7.999-.286-4.133-3.867-7.237-7.999-6.966-1.389.096-2.803.143-4.323.143-37.082 0-67.25-30.168-67.25-67.25 0-37.087 30.168-67.26 67.25-67.26s67.25 30.173 67.25 67.26c0 23.641-12.654 45.826-33.023 57.897-3.563 2.111-4.74 6.712-2.629 10.275 2.112 3.565 6.714 4.742 10.275 2.629 24.905-14.759 40.377-41.889 40.377-70.802.001-45.356-36.897-82.258-82.249-82.258zm-356.844 268.266-57.144-57.144c-1.015-1.014-1.015-2.665 0-3.679l10.41-10.41 60.823 60.821-10.411 10.412c-1.014 1.016-2.664 1.016-3.678 0zm33.679-15.715c-.663.664-1.438.763-1.84.763s-1.176-.099-1.839-.763l-71.421-71.418c-.003-.003-.006-.007-.009-.01-.001-.001-.002-.002-.003-.003-1.011-1.015-1.01-2.664.003-3.676l30.411-30.412 75.108 75.108zm134.698 65.305-35.108 35.107-12.25-12.251 35.107-35.107zm-37.373-85.486-10.948 10.949-18.605-27.061 15.248-8.207zm109.303-97.286c-12.079-.436-24.086 2.364-34.728 8.091l-129.524 69.716-77.824-77.824 69.716-129.523c5.728-10.642 8.526-22.65 8.092-34.728l-.304-8.458 173.031 173.031zm-61.001-170.839c4.948-2.591 10.928-1.682 14.877 2.271l50.424 50.424c3.95 3.949 4.862 9.928 2.271 14.876l-4.09 7.808-71.286-71.291z"/><path d="m477.65 225.695c0-2.71-1.462-5.208-3.823-6.537l-64.65-36.366c-2.319-1.306-5.161-1.282-7.463.063-2.3 1.345-3.714 3.81-3.714 6.474v72.731c0 2.664 1.414 5.129 3.714 6.474 1.169.684 2.477 1.026 3.786 1.026 1.267 0 2.535-.32 3.677-.963l64.65-36.365c2.361-1.329 3.823-3.827 3.823-6.537zm-64.65 23.541v-47.083l41.853 23.542z"/></g></g></svg>