<svg id="Capa_1" enable-background="new 0 0 513.091 513.091" height="512" viewBox="0 0 513.091 513.091" width="512" xmlns="http://www.w3.org/2000/svg"><g><g><path d="m475.195 244.088c-.618-2.853-1.262-5.702-1.912-8.55-4.195-18.386-11.405-36.036-21.344-52.065-7.931-12.792-17.543-24.53-28.442-34.907-7.386-7.033-15.365-13.488-23.896-19.085-3.593-2.357-5.738-6.332-5.738-10.632v-28.996h1.618c11.161 0 20.24-9.08 20.24-20.241v-49.372c0-11.161-9.08-20.24-20.24-20.24h-53.399c-4.142 0-7.5 3.358-7.5 7.5s3.358 7.5 7.5 7.5h53.399c2.89 0 5.24 2.351 5.24 5.24v49.372c0 2.89-2.351 5.241-5.24 5.241h-277.857c-2.89 0-5.241-2.351-5.241-5.241v-49.372c0-2.89 2.351-5.24 5.241-5.24h190.667c4.142 0 7.5-3.358 7.5-7.5s-3.358-7.5-7.5-7.5h-190.667c-11.161 0-20.241 9.08-20.241 20.24v49.372c0 11.161 9.08 20.241 20.241 20.241h1.618v28.996c0 4.3-2.145 8.274-5.739 10.632-17.74 11.637-33.292 26.842-45.677 44.039-10.917 15.157-19.405 32.257-24.824 50.056-5.63 18.489-9.166 38.174-10.411 57.571-1.33 20.708-.174 41.578 3.455 62.01 5.153 29.012 14.603 55.324 29.312 80.913 19.181 33.369 46.52 62.851 81.256 87.627 1.271.907 2.794 1.394 4.355 1.394h211.166c1.562 0 3.084-.487 4.355-1.394 34.736-24.776 62.075-54.259 81.256-87.627 9.897-17.218 17.614-35.418 23.128-54.382 5.88-20.221 9.201-41.171 9.986-62.211.797-21.326-1.155-42.573-5.665-63.389zm-353.464-102.066c7.834-5.139 12.511-13.802 12.511-23.174v-28.995h244.623v28.996c0 9.372 4.677 18.035 12.51 23.174 16.116 10.573 53.283 40.082 66.63 93.99h-16.747c-15.961-49.241-53.712-71.825-66.002-78.016-3.217-1.621-6.857-2.559-10.528-2.713-.105-.004-.21-.007-.315-.007h-216.12c-.105 0-.21.002-.315.007-3.671.154-7.312 1.092-10.529 2.713-12.291 6.191-50.04 28.773-65.999 78.016h-16.349c13.347-53.908 50.514-83.418 66.63-93.991zm303.647 93.991h-338.053c14.966-40.553 46.381-59.336 56.87-64.62 1.289-.649 2.764-1.034 4.274-1.116h215.765c1.51.082 2.984.467 4.273 1.116 10.489 5.283 41.905 24.065 56.871 64.62zm9.364 180.581c-17.743 30.866-42.978 58.276-75.023 81.497h-206.334c-31.92-23.13-57.084-50.418-74.815-81.136-3.212-5.565-6.17-11.252-8.9-17.042h18.246c5.933 11.178 13.177 22.497 22.067 33.679l1.674 2.079c2.598 3.226 7.32 3.736 10.545 1.136 3.226-2.598 3.734-7.32 1.136-10.545l-1.645-2.042c-6.412-8.064-11.904-16.207-16.625-24.307h303.77c-14.934 25.751-36.01 48.716-62.697 68.264-1.817 1.331-4.1 2.064-6.429 2.064h-165.338c-2.329 0-4.612-.733-6.429-2.064-7.676-5.623-14.981-11.595-21.71-17.75-3.056-2.796-7.8-2.584-10.596.472-2.795 3.057-2.584 7.801.472 10.596 7.129 6.521 14.857 12.84 22.97 18.782 4.37 3.201 9.8 4.963 15.293 4.963h165.341c5.493 0 10.924-1.763 15.293-4.963 28.884-21.157 51.656-46.167 67.686-74.333 1.134-1.992 2.222-4.006 3.286-6.031h17.454c-2.671 5.664-5.559 11.232-8.692 16.681zm30.842-105.914c-.654 12.638-2.278 25.3-4.865 37.64-.541 2.582-1.126 5.155-1.752 7.718-2.125 8.691-4.757 17.279-7.869 25.641-.119.321-1.025 3.235-1.23 3.235-.003 0-386.634 0-386.634 0-.925-2.385-1.825-4.78-2.676-7.211-1.615-4.611-3.07-9.273-4.389-13.959-14.601-52.139-7.621-96.884-4.659-111.198.033-.158.066-.318.098-.469.028-.134.057-.271.084-.399.051-.238.098-.447.146-.664h409.433c.114.512.235 1.075.366 1.702 1.783 8.558 2.923 17.586 3.588 26.427.791 10.489.903 21.031.359 31.537z"/><path d="m293.171 282.73c-.024 0-.049 0-.074 0-4.142.04-7.467 3.43-7.427 7.572l.309 31.952-24.987-36.182c-1.865-2.702-5.271-3.873-8.403-2.898-3.134.977-5.268 3.878-5.268 7.16v55.362c0 4.142 3.358 7.5 7.5 7.5s7.5-3.358 7.5-7.5v-31.303l23.763 34.41c2.182 3.152 5.829 4.488 9.293 3.408 3.53-1.103 5.811-4.394 5.811-8.457l-.518-53.597c-.041-4.117-3.391-7.427-7.499-7.427z"/><path d="m138.936 282.73c-4.142 0-7.5 3.358-7.5 7.5v19.282h-23.383v-19.282c0-4.142-3.358-7.5-7.5-7.5s-7.5 3.358-7.5 7.5v55.466c0 4.142 3.358 7.5 7.5 7.5s7.5-3.358 7.5-7.5v-21.184h23.383v21.184c0 4.142 3.358 7.5 7.5 7.5s7.5-3.358 7.5-7.5v-55.466c0-4.142-3.358-7.5-7.5-7.5z"/><path d="m347.054 297.73c4.142 0 7.5-3.358 7.5-7.5s-3.358-7.5-7.5-7.5h-23.158c-4.142 0-7.5 3.358-7.5 7.5v54.959c0 4.142 3.358 7.5 7.5 7.5h23.158c4.142 0 7.5-3.358 7.5-7.5s-3.358-7.5-7.5-7.5h-15.658v-12.479h13.95c4.142 0 7.5-3.358 7.5-7.5s-3.358-7.5-7.5-7.5h-13.95v-12.48z"/><path d="m416.644 284.085c-3.47-2.259-8.117-1.277-10.377 2.194l-11.295 17.352-11.427-17.501c-2.265-3.468-6.913-4.443-10.38-2.179-3.468 2.265-4.444 6.912-2.179 10.38l16.491 25.256-.064 26.091c-.01 4.142 3.339 7.508 7.481 7.519h.019c4.133 0 7.489-3.346 7.5-7.481l.064-26.116 16.362-25.135c2.258-3.474 1.276-8.12-2.195-10.38z"/><path d="m196.878 282.73c-19.427 0-35.233 15.805-35.233 35.233s15.806 35.233 35.233 35.233 35.232-15.805 35.232-35.233-15.805-35.233-35.232-35.233zm0 55.466c-11.156 0-20.233-9.077-20.233-20.233s9.077-20.233 20.233-20.233 20.232 9.077 20.232 20.233-9.076 20.233-20.232 20.233z"/></g></g></svg>