<svg id="Layer_1" enable-background="new 0 0 74 74" height="512" viewBox="0 0 74 74" width="512" xmlns="http://www.w3.org/2000/svg"><g><path d="m66.5 10.4h-59c-1.9 0-3.5 1.6-3.5 3.5v41.7c0 1.9 1.6 3.5 3.5 3.5h.3v3.5c0 .6.4 1 1 1h8.2c.4 0 .7-.2.9-.5l2.1-4h34l2.1 4c.2.3.5.5.9.5h8.2c.6 0 1-.4 1-1v-3.5h.2c1.9 0 3.5-1.6 3.5-3.5v-5-31.7-5c.1-1.9-1.5-3.5-3.4-3.5zm-50.1 51.2h-6.6v-2.5h7.9zm47.9 0h-6.6l-1.3-2.5h7.9zm2.2-4.5h-1.2s0 0 0 0h-10.7-35-10.8s0 0 0 0h-1.3c-.8 0-1.5-.7-1.5-1.5v-41.7c0-.8.7-1.5 1.5-1.5h59c.8 0 1.5.7 1.5 1.5v4h-12.5c-2.5 0-4.5 2-4.5 4.5v24.7c0 2.5 2 4.5 4.5 4.5h12.5v4c0 .8-.7 1.5-1.5 1.5zm1.5-7.5h-12.5c-1.4 0-2.5-1.1-2.5-2.5v-24.7c0-1.4 1.1-2.5 2.5-2.5h12.5z"/><path d="m27.3 16.4c-10.1 0-18.3 8.2-18.3 18.3s8.2 18.3 18.3 18.3 18.3-8.2 18.3-18.3c.1-10.1-8.1-18.3-18.3-18.3zm0 34.7c-9 0-16.3-7.3-16.3-16.3s7.3-16.3 16.3-16.3 16.3 7.3 16.3 16.3c.1 9-7.3 16.3-16.3 16.3z"/><path d="m30.8 31.5c-.1-.1-.2-.2-.3-.3.9-2 2.8-3.9 5.5-5.8.3-.2.5-.6.4-.9 0-.4-.3-.7-.6-.8-4.5-1.9-7.9-2.1-9.9-.5-1.8 1.4-2.4 4.2-1.7 8.1-.1.1-.2.2-.3.3-2-.9-3.9-2.8-5.8-5.5-.2-.3-.6-.5-.9-.4-.4 0-.7.3-.8.6-1.9 4.5-2.1 7.9-.5 9.9 1.1 1.3 2.8 2 5.3 2 .9 0 1.8-.1 2.8-.3.1.1.2.2.3.3-.9 2-2.8 3.9-5.5 5.8-.3.2-.5.6-.4.9 0 .4.3.7.6.8 2.5 1 4.6 1.6 6.3 1.6 1.4 0 2.6-.4 3.6-1.1 1.8-1.4 2.4-4.2 1.7-8.1l.3-.3c2 .9 3.9 2.8 5.8 5.5.2.3.5.4.8.4h.1c.4 0 .7-.3.8-.6 1.9-4.5 2.1-7.9.5-9.9-1.5-1.7-4.2-2.3-8.1-1.7zm-6.2 3.2c0-1.5 1.2-2.7 2.7-2.7s2.7 1.2 2.7 2.7-1.2 2.7-2.7 2.7c-1.5.1-2.7-1.2-2.7-2.7zm2.5-9.9c1.2-.9 3.3-.9 6.2.1-2.2 1.7-3.7 3.5-4.6 5.4-.4-.1-.9-.2-1.3-.2-.5 0-.9.1-1.4.2-.4-2.8 0-4.6 1.1-5.5zm-9.7 10.2c-.9-1.2-.9-3.3.1-6.2 1.7 2.2 3.5 3.7 5.4 4.6-.1.4-.2.9-.2 1.3 0 .5.1.9.2 1.4-2.8.4-4.7 0-5.5-1.1zm10.2 9.7c-1.2.9-3.3.9-6.2-.1 2.2-1.7 3.7-3.5 4.6-5.4.4.1.9.2 1.4.2s.9-.1 1.4-.2c.2 2.8-.1 4.6-1.2 5.5zm9.6-4c-1.7-2.2-3.5-3.7-5.4-4.6.1-.4.2-.9.2-1.3 0-.5-.1-.9-.2-1.4 2.7-.3 4.6 0 5.5 1.1.9 1.2.9 3.3-.1 6.2z"/><path d="m57.2 40.5h6.6c.6 0 1-.4 1-1s-.4-1-1-1h-6.6c-.6 0-1 .4-1 1s.5 1 1 1z"/><path d="m57.2 31h6.6c.6 0 1-.4 1-1s-.4-1-1-1h-6.6c-.6 0-1 .4-1 1s.5 1 1 1z"/><path d="m57.2 35.8h6.6c.6 0 1-.4 1-1s-.4-1-1-1h-6.6c-.6 0-1 .4-1 1s.5 1 1 1z"/><path d="m57.2 45.3h6.6c.6 0 1-.4 1-1s-.4-1-1-1h-6.6c-.6 0-1 .4-1 1s.5 1 1 1z"/><path d="m57.2 26.2h6.6c.6 0 1-.4 1-1s-.4-1-1-1h-6.6c-.6 0-1 .4-1 1s.5 1 1 1z"/></g></svg>