<svg id="Layer_1" enable-background="new 0 0 512 512" height="512" viewBox="0 0 512 512" width="512" xmlns="http://www.w3.org/2000/svg"><path d="m392.599 13.5h-273.198c-58.394 0-105.901 47.507-105.901 105.901v273.198c0 58.394 47.507 105.901 105.901 105.901h273.198c58.394 0 105.901-47.507 105.901-105.901v-273.198c0-58.394-47.507-105.901-105.901-105.901zm80.901 379.099c0 44.609-36.292 80.901-80.901 80.901h-273.198c-44.609 0-80.901-36.292-80.901-80.901v-273.198c0-44.609 36.292-80.901 80.901-80.901h273.198c44.609 0 80.901 36.292 80.901 80.901zm-183.074-159.532 94.35-117.595c4.32-5.385 3.457-13.252-1.927-17.573-5.385-4.319-13.252-3.458-17.573 1.928l-90.876 113.265-90.876-113.265c-2.373-2.957-5.959-4.678-9.75-4.678h-73.601c-4.808 0-9.19 2.758-11.27 7.093s-1.489 9.479 1.52 13.229l131.15 163.462-94.35 117.595c-4.32 5.385-3.457 13.252 1.927 17.573 2.308 1.851 5.07 2.75 7.815 2.75 3.66 0 7.289-1.601 9.758-4.678l90.877-113.265 90.875 113.265c2.373 2.957 5.959 4.678 9.75 4.678h73.601.02c6.903 0 12.5-5.596 12.5-12.5 0-3.187-1.192-6.094-3.155-8.302zm53.797 158.784-217.994-271.702h41.548l217.994 271.702z"/></svg>